<svg width="408" height="95" viewBox="0 0 408 95" fill="none" xmlns="http://www.w3.org/2000/svg">
    <g filter="url(#filter0_d_6_2253)">
        <rect x="4" width="400" height="87" rx="11.67" fill="#F7F9FB" />
        <rect x="4" width="400" height="87" rx="11.67" fill="url(#paint0_linear_6_2253)" />
        <path
            d="M63.0391 57.0122H60.3364L60.3218 55.877H62.7754C63.1807 55.877 63.5347 55.8086 63.8374 55.6719C64.1401 55.5352 64.3745 55.3398 64.5405 55.0859C64.7114 54.8271 64.7969 54.5195 64.7969 54.1631C64.7969 53.7725 64.7212 53.4551 64.5698 53.2109C64.4233 52.9619 64.1963 52.7812 63.8887 52.6689C63.5859 52.5518 63.2002 52.4932 62.7314 52.4932H60.6514V62H59.2378V51.3359H62.7314C63.2783 51.3359 63.7666 51.3921 64.1963 51.5044C64.626 51.6118 64.9897 51.7827 65.2876 52.0171C65.5903 52.2466 65.8198 52.5396 65.9761 52.896C66.1323 53.2524 66.2104 53.6797 66.2104 54.1777C66.2104 54.6172 66.0981 55.0151 65.8735 55.3716C65.6489 55.7231 65.3364 56.0112 64.936 56.2358C64.5405 56.4604 64.0767 56.6045 63.5444 56.668L63.0391 57.0122ZM62.9731 62H59.7798L60.5781 60.8501H62.9731C63.4224 60.8501 63.8032 60.772 64.1157 60.6157C64.4331 60.4595 64.6748 60.2397 64.8408 59.9565C65.0068 59.6685 65.0898 59.3291 65.0898 58.9385C65.0898 58.543 65.019 58.2012 64.8774 57.9131C64.7358 57.625 64.5137 57.4028 64.2109 57.2466C63.9082 57.0903 63.5176 57.0122 63.0391 57.0122H61.0249L61.0396 55.877H63.7935L64.0938 56.2871C64.6064 56.3311 65.041 56.4775 65.3975 56.7266C65.7539 56.9707 66.0249 57.2832 66.2104 57.6641C66.4009 58.0449 66.4961 58.4648 66.4961 58.9238C66.4961 59.5879 66.3496 60.1494 66.0566 60.6084C65.7686 61.0625 65.3608 61.4092 64.8335 61.6484C64.3062 61.8828 63.686 62 62.9731 62ZM69.8506 54.0752V62H68.4883V54.0752H69.8506ZM68.3857 51.9731C68.3857 51.7534 68.4517 51.5679 68.5835 51.4165C68.7202 51.2651 68.9204 51.1895 69.1841 51.1895C69.4429 51.1895 69.6406 51.2651 69.7773 51.4165C69.9189 51.5679 69.9897 51.7534 69.9897 51.9731C69.9897 52.1831 69.9189 52.3638 69.7773 52.5151C69.6406 52.6616 69.4429 52.7349 69.1841 52.7349C68.9204 52.7349 68.7202 52.6616 68.5835 52.5151C68.4517 52.3638 68.3857 52.1831 68.3857 51.9731ZM73.3809 55.3203V62H72.0259V54.0752H73.3442L73.3809 55.3203ZM75.8564 54.0312L75.8491 55.291C75.7368 55.2666 75.6294 55.252 75.5269 55.2471C75.4292 55.2373 75.3169 55.2324 75.1899 55.2324C74.8774 55.2324 74.6016 55.2812 74.3623 55.3789C74.123 55.4766 73.9204 55.6133 73.7544 55.7891C73.5884 55.9648 73.4565 56.1748 73.3589 56.4189C73.2661 56.6582 73.2051 56.9219 73.1758 57.21L72.7949 57.4297C72.7949 56.9512 72.8413 56.502 72.9341 56.082C73.0317 55.6621 73.1807 55.291 73.3809 54.9688C73.5811 54.6416 73.835 54.3877 74.1426 54.207C74.4551 54.0215 74.8262 53.9287 75.2559 53.9287C75.3535 53.9287 75.4658 53.9409 75.5928 53.9653C75.7197 53.9849 75.8076 54.0068 75.8564 54.0312ZM78.4565 55.6499V62H77.0942V54.0752H78.3833L78.4565 55.6499ZM78.1782 57.7373L77.5483 57.7153C77.5532 57.1733 77.624 56.6729 77.7607 56.2139C77.8975 55.75 78.1001 55.3472 78.3687 55.0054C78.6372 54.6636 78.9717 54.3999 79.3721 54.2144C79.7725 54.0239 80.2363 53.9287 80.7637 53.9287C81.1348 53.9287 81.4766 53.9824 81.7891 54.0898C82.1016 54.1924 82.3726 54.356 82.6021 54.5806C82.8315 54.8052 83.0098 55.0933 83.1367 55.4448C83.2637 55.7964 83.3271 56.2212 83.3271 56.7192V62H81.9722V56.7852C81.9722 56.3701 81.9014 56.0381 81.7598 55.7891C81.623 55.54 81.4277 55.3594 81.1738 55.2471C80.9199 55.1299 80.6221 55.0713 80.2803 55.0713C79.8799 55.0713 79.5454 55.1421 79.2769 55.2837C79.0083 55.4253 78.7935 55.6206 78.6323 55.8696C78.4712 56.1187 78.354 56.4043 78.2808 56.7266C78.2124 57.0439 78.1782 57.3809 78.1782 57.7373ZM83.3125 56.9902L82.4043 57.2686C82.4092 56.834 82.48 56.4165 82.6167 56.0161C82.7583 55.6157 82.9609 55.2593 83.2246 54.9468C83.4932 54.6343 83.8228 54.3877 84.2134 54.207C84.604 54.0215 85.0508 53.9287 85.5537 53.9287C85.9785 53.9287 86.3545 53.9849 86.6816 54.0972C87.0137 54.2095 87.292 54.3828 87.5166 54.6172C87.7461 54.8467 87.9194 55.1421 88.0366 55.5034C88.1538 55.8647 88.2124 56.2944 88.2124 56.7925V62H86.8501V56.7778C86.8501 56.3335 86.7793 55.9893 86.6377 55.7451C86.501 55.4961 86.3057 55.3228 86.0518 55.2251C85.8027 55.1226 85.5049 55.0713 85.1582 55.0713C84.8604 55.0713 84.5967 55.1226 84.3672 55.2251C84.1377 55.3276 83.9448 55.4692 83.7886 55.6499C83.6323 55.8257 83.5127 56.0283 83.4297 56.2578C83.3516 56.4873 83.3125 56.7314 83.3125 56.9902ZM91.7354 54.0752V62H90.373V54.0752H91.7354ZM90.2705 51.9731C90.2705 51.7534 90.3364 51.5679 90.4683 51.4165C90.605 51.2651 90.8052 51.1895 91.0688 51.1895C91.3276 51.1895 91.5254 51.2651 91.6621 51.4165C91.8037 51.5679 91.8745 51.7534 91.8745 51.9731C91.8745 52.1831 91.8037 52.3638 91.6621 52.5151C91.5254 52.6616 91.3276 52.7349 91.0688 52.7349C90.8052 52.7349 90.605 52.6616 90.4683 52.5151C90.3364 52.3638 90.2705 52.1831 90.2705 51.9731ZM95.2656 55.7671V62H93.9106V54.0752H95.1924L95.2656 55.7671ZM94.9434 57.7373L94.3794 57.7153C94.3843 57.1733 94.4648 56.6729 94.6211 56.2139C94.7773 55.75 94.9971 55.3472 95.2803 55.0054C95.5635 54.6636 95.9004 54.3999 96.291 54.2144C96.6865 54.0239 97.1235 53.9287 97.6021 53.9287C97.9927 53.9287 98.3442 53.9824 98.6567 54.0898C98.9692 54.1924 99.2354 54.3584 99.4551 54.5879C99.6797 54.8174 99.8506 55.1152 99.9678 55.4814C100.085 55.8428 100.144 56.2847 100.144 56.8071V62H98.7812V56.7925C98.7812 56.3774 98.7202 56.0454 98.5981 55.7964C98.4761 55.5425 98.2979 55.3594 98.0635 55.2471C97.8291 55.1299 97.541 55.0713 97.1992 55.0713C96.8623 55.0713 96.5547 55.1421 96.2764 55.2837C96.0029 55.4253 95.7661 55.6206 95.5659 55.8696C95.3706 56.1187 95.2168 56.4043 95.1045 56.7266C94.9971 57.0439 94.9434 57.3809 94.9434 57.7373ZM107.336 54.0752H108.566V61.8315C108.566 62.5298 108.425 63.1255 108.142 63.6187C107.858 64.1118 107.463 64.4854 106.955 64.7393C106.452 64.998 105.871 65.1274 105.212 65.1274C104.938 65.1274 104.616 65.0835 104.245 64.9956C103.879 64.9126 103.518 64.7686 103.161 64.5635C102.81 64.3633 102.514 64.0923 102.275 63.7505L102.985 62.9448C103.317 63.3452 103.664 63.6235 104.025 63.7798C104.392 63.936 104.753 64.0142 105.109 64.0142C105.539 64.0142 105.91 63.9336 106.223 63.7725C106.535 63.6113 106.777 63.3721 106.948 63.0547C107.124 62.7422 107.211 62.3564 107.211 61.8975V55.8184L107.336 54.0752ZM101.879 58.1255V57.9717C101.879 57.3662 101.95 56.8169 102.092 56.3237C102.238 55.8257 102.446 55.3984 102.714 55.042C102.988 54.6855 103.317 54.4121 103.703 54.2217C104.089 54.0264 104.523 53.9287 105.007 53.9287C105.505 53.9287 105.939 54.0166 106.311 54.1924C106.687 54.3633 107.004 54.6147 107.263 54.9468C107.526 55.2739 107.734 55.6694 107.885 56.1333C108.037 56.5972 108.142 57.1221 108.2 57.708V58.3818C108.146 58.9629 108.042 59.4854 107.885 59.9492C107.734 60.4131 107.526 60.8086 107.263 61.1357C107.004 61.4629 106.687 61.7144 106.311 61.8901C105.935 62.061 105.495 62.1465 104.992 62.1465C104.519 62.1465 104.089 62.0464 103.703 61.8462C103.322 61.646 102.995 61.3652 102.722 61.0039C102.448 60.6426 102.238 60.2178 102.092 59.7295C101.95 59.2363 101.879 58.7017 101.879 58.1255ZM103.234 57.9717V58.1255C103.234 58.521 103.273 58.8921 103.352 59.2388C103.435 59.5854 103.559 59.8906 103.725 60.1543C103.896 60.418 104.113 60.6255 104.377 60.7769C104.641 60.9233 104.956 60.9966 105.322 60.9966C105.771 60.9966 106.142 60.9014 106.435 60.7109C106.728 60.5205 106.96 60.269 107.131 59.9565C107.307 59.644 107.443 59.3047 107.541 58.9385V57.1733C107.487 56.9048 107.404 56.646 107.292 56.397C107.185 56.1431 107.043 55.9185 106.867 55.7231C106.696 55.5229 106.484 55.3643 106.23 55.2471C105.976 55.1299 105.678 55.0713 105.336 55.0713C104.965 55.0713 104.646 55.1494 104.377 55.3057C104.113 55.457 103.896 55.667 103.725 55.9355C103.559 56.1992 103.435 56.5068 103.352 56.8584C103.273 57.2051 103.234 57.5762 103.234 57.9717ZM111.979 50.75V62H110.625V50.75H111.979ZM111.657 57.7373L111.093 57.7153C111.098 57.1733 111.179 56.6729 111.335 56.2139C111.491 55.75 111.711 55.3472 111.994 55.0054C112.277 54.6636 112.614 54.3999 113.005 54.2144C113.4 54.0239 113.837 53.9287 114.316 53.9287C114.707 53.9287 115.058 53.9824 115.371 54.0898C115.683 54.1924 115.949 54.3584 116.169 54.5879C116.394 54.8174 116.564 55.1152 116.682 55.4814C116.799 55.8428 116.857 56.2847 116.857 56.8071V62H115.495V56.7925C115.495 56.3774 115.434 56.0454 115.312 55.7964C115.19 55.5425 115.012 55.3594 114.777 55.2471C114.543 55.1299 114.255 55.0713 113.913 55.0713C113.576 55.0713 113.269 55.1421 112.99 55.2837C112.717 55.4253 112.48 55.6206 112.28 55.8696C112.084 56.1187 111.931 56.4043 111.818 56.7266C111.711 57.0439 111.657 57.3809 111.657 57.7373ZM123.559 60.645V56.5654C123.559 56.2529 123.496 55.9819 123.369 55.7524C123.247 55.5181 123.061 55.3374 122.812 55.2104C122.563 55.0835 122.255 55.02 121.889 55.02C121.547 55.02 121.247 55.0786 120.988 55.1958C120.734 55.313 120.534 55.4668 120.388 55.6572C120.246 55.8477 120.175 56.0527 120.175 56.2725H118.82C118.82 55.9893 118.894 55.7085 119.04 55.4302C119.187 55.1519 119.396 54.9004 119.67 54.6758C119.948 54.4463 120.28 54.2656 120.666 54.1338C121.057 53.9971 121.491 53.9287 121.97 53.9287C122.546 53.9287 123.054 54.0264 123.493 54.2217C123.938 54.417 124.284 54.7124 124.533 55.1079C124.787 55.4985 124.914 55.9893 124.914 56.5801V60.2715C124.914 60.5352 124.936 60.8159 124.98 61.1138C125.029 61.4116 125.1 61.668 125.192 61.8828V62H123.779C123.71 61.8438 123.657 61.6362 123.618 61.3774C123.579 61.1138 123.559 60.8696 123.559 60.645ZM123.793 57.1953L123.808 58.1475H122.438C122.053 58.1475 121.708 58.1792 121.406 58.2427C121.103 58.3013 120.849 58.3916 120.644 58.5137C120.439 58.6357 120.283 58.7896 120.175 58.9751C120.068 59.1558 120.014 59.3682 120.014 59.6123C120.014 59.8613 120.07 60.0884 120.183 60.2935C120.295 60.4985 120.463 60.6621 120.688 60.7842C120.917 60.9014 121.198 60.96 121.53 60.96C121.945 60.96 122.312 60.8721 122.629 60.6963C122.946 60.5205 123.198 60.3057 123.383 60.0518C123.574 59.7979 123.676 59.5513 123.691 59.312L124.27 59.9639C124.235 60.1689 124.143 60.396 123.991 60.645C123.84 60.894 123.637 61.1333 123.383 61.3628C123.134 61.5874 122.836 61.7754 122.49 61.9268C122.148 62.0732 121.762 62.1465 121.333 62.1465C120.795 62.1465 120.324 62.0415 119.919 61.8315C119.519 61.6216 119.206 61.3408 118.981 60.9893C118.762 60.6328 118.652 60.2349 118.652 59.7954C118.652 59.3706 118.735 58.9971 118.901 58.6748C119.067 58.3477 119.306 58.0767 119.619 57.8618C119.931 57.6421 120.307 57.4761 120.747 57.3638C121.186 57.2515 121.677 57.1953 122.219 57.1953H123.793ZM128.393 55.6499V62H127.031V54.0752H128.32L128.393 55.6499ZM128.115 57.7373L127.485 57.7153C127.49 57.1733 127.561 56.6729 127.697 56.2139C127.834 55.75 128.037 55.3472 128.305 55.0054C128.574 54.6636 128.908 54.3999 129.309 54.2144C129.709 54.0239 130.173 53.9287 130.7 53.9287C131.071 53.9287 131.413 53.9824 131.726 54.0898C132.038 54.1924 132.309 54.356 132.539 54.5806C132.768 54.8052 132.946 55.0933 133.073 55.4448C133.2 55.7964 133.264 56.2212 133.264 56.7192V62H131.909V56.7852C131.909 56.3701 131.838 56.0381 131.696 55.7891C131.56 55.54 131.364 55.3594 131.11 55.2471C130.856 55.1299 130.559 55.0713 130.217 55.0713C129.816 55.0713 129.482 55.1421 129.213 55.2837C128.945 55.4253 128.73 55.6206 128.569 55.8696C128.408 56.1187 128.291 56.4043 128.217 56.7266C128.149 57.0439 128.115 57.3809 128.115 57.7373ZM133.249 56.9902L132.341 57.2686C132.346 56.834 132.417 56.4165 132.553 56.0161C132.695 55.6157 132.897 55.2593 133.161 54.9468C133.43 54.6343 133.759 54.3877 134.15 54.207C134.541 54.0215 134.987 53.9287 135.49 53.9287C135.915 53.9287 136.291 53.9849 136.618 54.0972C136.95 54.2095 137.229 54.3828 137.453 54.6172C137.683 54.8467 137.856 55.1421 137.973 55.5034C138.09 55.8647 138.149 56.2944 138.149 56.7925V62H136.787V56.7778C136.787 56.3335 136.716 55.9893 136.574 55.7451C136.438 55.4961 136.242 55.3228 135.988 55.2251C135.739 55.1226 135.441 55.0713 135.095 55.0713C134.797 55.0713 134.533 55.1226 134.304 55.2251C134.074 55.3276 133.881 55.4692 133.725 55.6499C133.569 55.8257 133.449 56.0283 133.366 56.2578C133.288 56.4873 133.249 56.7314 133.249 56.9902Z"
            fill="white" />
        <path
            d="M94.8574 32.6699H96.3613C96.8431 32.6699 97.2402 32.5885 97.5527 32.4258C97.8652 32.2565 98.0964 32.0221 98.2461 31.7227C98.4023 31.4167 98.4805 31.0618 98.4805 30.6582C98.4805 30.2936 98.4089 29.9714 98.2656 29.6914C98.1289 29.4049 97.9173 29.1836 97.6309 29.0273C97.3444 28.8646 96.9831 28.7832 96.5469 28.7832C96.2018 28.7832 95.8828 28.8516 95.5898 28.9883C95.2969 29.125 95.0625 29.3171 94.8867 29.5645C94.7109 29.8118 94.623 30.1113 94.623 30.4629H91.8008C91.8008 29.6816 92.0091 29.0013 92.4258 28.4219C92.849 27.8424 93.4154 27.39 94.125 27.0645C94.8346 26.7389 95.6159 26.5762 96.4688 26.5762C97.4323 26.5762 98.2754 26.7324 98.998 27.0449C99.7207 27.3509 100.284 27.8034 100.688 28.4023C101.091 29.0013 101.293 29.7435 101.293 30.6289C101.293 31.0781 101.189 31.5143 100.98 31.9375C100.772 32.3542 100.473 32.7318 100.082 33.0703C99.6979 33.4023 99.2292 33.6693 98.6758 33.8711C98.1224 34.0664 97.5007 34.1641 96.8105 34.1641H94.8574V32.6699ZM94.8574 34.8086V33.3535H96.8105C97.5853 33.3535 98.2656 33.4414 98.8516 33.6172C99.4375 33.793 99.929 34.0469 100.326 34.3789C100.723 34.7044 101.023 35.0918 101.225 35.541C101.426 35.9837 101.527 36.4753 101.527 37.0156C101.527 37.6797 101.4 38.2721 101.146 38.793C100.893 39.3073 100.535 39.7435 100.072 40.1016C99.6165 40.4596 99.0827 40.7331 98.4707 40.9219C97.8587 41.1042 97.1914 41.1953 96.4688 41.1953C95.8698 41.1953 95.2806 41.1139 94.7012 40.9512C94.1283 40.7819 93.6074 40.5312 93.1387 40.1992C92.6764 39.8607 92.3053 39.4375 92.0254 38.9297C91.752 38.4154 91.6152 37.8066 91.6152 37.1035H94.4375C94.4375 37.4681 94.5286 37.7936 94.7109 38.0801C94.8932 38.3665 95.1439 38.5911 95.4629 38.7539C95.7884 38.9167 96.1497 38.998 96.5469 38.998C96.9961 38.998 97.3802 38.9167 97.6992 38.7539C98.0247 38.5846 98.2721 38.3503 98.4414 38.0508C98.6172 37.7448 98.7051 37.39 98.7051 36.9863C98.7051 36.4655 98.6107 36.0488 98.4219 35.7363C98.2331 35.4173 97.9629 35.1829 97.6113 35.0332C97.2598 34.8835 96.8431 34.8086 96.3613 34.8086H94.8574ZM113.188 38.8027V41H103.461V39.125L108.061 34.1934C108.523 33.679 108.887 33.2266 109.154 32.8359C109.421 32.4388 109.613 32.084 109.73 31.7715C109.854 31.4525 109.916 31.1497 109.916 30.8633C109.916 30.4336 109.844 30.0658 109.701 29.7598C109.558 29.4473 109.346 29.2064 109.066 29.0371C108.793 28.8678 108.454 28.7832 108.051 28.7832C107.621 28.7832 107.25 28.8874 106.938 29.0957C106.632 29.304 106.397 29.5938 106.234 29.9648C106.078 30.3359 106 30.7559 106 31.2246H103.178C103.178 30.3783 103.38 29.6035 103.783 28.9004C104.187 28.1908 104.757 27.6276 105.492 27.2109C106.228 26.7878 107.1 26.5762 108.109 26.5762C109.105 26.5762 109.945 26.7389 110.629 27.0645C111.319 27.3835 111.84 27.8457 112.191 28.4512C112.549 29.0501 112.729 29.7663 112.729 30.5996C112.729 31.0684 112.654 31.5273 112.504 31.9766C112.354 32.4193 112.139 32.862 111.859 33.3047C111.586 33.7409 111.254 34.1836 110.863 34.6328C110.473 35.082 110.04 35.5475 109.564 36.0293L107.094 38.8027H113.188ZM115.219 29.2617C115.219 28.7734 115.339 28.3275 115.58 27.9238C115.821 27.5137 116.143 27.1882 116.547 26.9473C116.951 26.7064 117.393 26.5859 117.875 26.5859C118.35 26.5859 118.786 26.7064 119.184 26.9473C119.581 27.1882 119.896 27.5137 120.131 27.9238C120.365 28.3275 120.482 28.7734 120.482 29.2617C120.482 29.75 120.365 30.196 120.131 30.5996C119.896 30.9967 119.581 31.3125 119.184 31.5469C118.786 31.7812 118.35 31.8984 117.875 31.8984C117.393 31.8984 116.951 31.7812 116.547 31.5469C116.143 31.3125 115.821 30.9967 115.58 30.5996C115.339 30.196 115.219 29.75 115.219 29.2617ZM116.625 29.2617C116.625 29.6133 116.749 29.9062 116.996 30.1406C117.243 30.375 117.536 30.4922 117.875 30.4922C118.214 30.4922 118.497 30.375 118.725 30.1406C118.952 29.9062 119.066 29.6133 119.066 29.2617C119.066 28.9036 118.952 28.6042 118.725 28.3633C118.497 28.1224 118.214 28.002 117.875 28.002C117.536 28.002 117.243 28.1224 116.996 28.3633C116.749 28.6042 116.625 28.9036 116.625 29.2617ZM131.273 36.2832H134.193C134.135 37.2402 133.871 38.0898 133.402 38.832C132.94 39.5742 132.292 40.1536 131.459 40.5703C130.632 40.987 129.636 41.1953 128.471 41.1953C127.559 41.1953 126.742 41.0391 126.02 40.7266C125.297 40.4076 124.678 39.9518 124.164 39.3594C123.656 38.7669 123.269 38.0508 123.002 37.2109C122.735 36.3711 122.602 35.4303 122.602 34.3887V33.4023C122.602 32.3607 122.738 31.4199 123.012 30.5801C123.292 29.7337 123.689 29.0143 124.203 28.4219C124.724 27.8294 125.346 27.3737 126.068 27.0547C126.791 26.7357 127.598 26.5762 128.49 26.5762C129.675 26.5762 130.674 26.791 131.488 27.2207C132.309 27.6504 132.943 28.2428 133.393 28.998C133.848 29.7533 134.122 30.6126 134.213 31.5762H131.283C131.251 31.0033 131.137 30.5182 130.941 30.1211C130.746 29.7174 130.45 29.4147 130.053 29.2129C129.662 29.0046 129.141 28.9004 128.49 28.9004C128.002 28.9004 127.576 28.9915 127.211 29.1738C126.846 29.3561 126.54 29.6328 126.293 30.0039C126.046 30.375 125.86 30.8438 125.736 31.4102C125.619 31.9701 125.561 32.6276 125.561 33.3828V34.3887C125.561 35.1243 125.616 35.7721 125.727 36.332C125.837 36.8854 126.007 37.3542 126.234 37.7383C126.469 38.1159 126.768 38.4023 127.133 38.5977C127.504 38.7865 127.95 38.8809 128.471 38.8809C129.083 38.8809 129.587 38.7832 129.984 38.5879C130.382 38.3926 130.684 38.1029 130.893 37.7188C131.107 37.3346 131.234 36.8561 131.273 36.2832Z"
            fill="white" />
        <path
            d="M200.874 25.8867V27H193.894V26.0259L197.387 22.1367C197.817 21.6582 198.149 21.2529 198.383 20.9209C198.623 20.584 198.789 20.2837 198.881 20.02C198.979 19.7515 199.028 19.478 199.028 19.1997C199.028 18.8481 198.955 18.5308 198.808 18.2476C198.667 17.9595 198.457 17.73 198.178 17.5591C197.9 17.3882 197.563 17.3027 197.167 17.3027C196.694 17.3027 196.298 17.3955 195.981 17.5811C195.668 17.7617 195.434 18.0156 195.278 18.3428C195.122 18.6699 195.043 19.0459 195.043 19.4707H193.688C193.688 18.8701 193.82 18.3208 194.084 17.8228C194.348 17.3247 194.738 16.9292 195.256 16.6362C195.773 16.3384 196.411 16.1895 197.167 16.1895C197.841 16.1895 198.417 16.3091 198.896 16.5483C199.375 16.7827 199.741 17.1147 199.995 17.5444C200.253 17.9692 200.383 18.4673 200.383 19.0386C200.383 19.3511 200.329 19.6685 200.222 19.9907C200.119 20.3081 199.975 20.6255 199.79 20.9429C199.609 21.2603 199.396 21.5728 199.152 21.8804C198.913 22.188 198.657 22.4907 198.383 22.7886L195.527 25.8867H200.874ZM203.825 20.5986V30.0469H202.463V19.0752H203.708L203.825 20.5986ZM209.165 22.9717V23.1255C209.165 23.7017 209.096 24.2363 208.959 24.7295C208.823 25.2178 208.623 25.6426 208.359 26.0039C208.1 26.3652 207.78 26.646 207.399 26.8462C207.019 27.0464 206.582 27.1465 206.088 27.1465C205.585 27.1465 205.141 27.0635 204.755 26.8975C204.37 26.7314 204.042 26.4897 203.774 26.1724C203.505 25.855 203.291 25.4741 203.129 25.0298C202.973 24.5854 202.866 24.085 202.807 23.5283V22.708C202.866 22.1221 202.976 21.5972 203.137 21.1333C203.298 20.6694 203.51 20.2739 203.774 19.9468C204.042 19.6147 204.367 19.3633 204.748 19.1924C205.129 19.0166 205.568 18.9287 206.066 18.9287C206.564 18.9287 207.006 19.0264 207.392 19.2217C207.778 19.4121 208.103 19.6855 208.366 20.042C208.63 20.3984 208.828 20.8257 208.959 21.3237C209.096 21.8169 209.165 22.3662 209.165 22.9717ZM207.802 23.1255V22.9717C207.802 22.5762 207.761 22.2051 207.678 21.8584C207.595 21.5068 207.465 21.1992 207.29 20.9355C207.119 20.667 206.899 20.457 206.63 20.3057C206.362 20.1494 206.042 20.0713 205.671 20.0713C205.329 20.0713 205.031 20.1299 204.777 20.2471C204.528 20.3643 204.316 20.5229 204.14 20.7231C203.964 20.9185 203.82 21.1431 203.708 21.397C203.601 21.646 203.52 21.9048 203.466 22.1733V24.0703C203.564 24.4121 203.701 24.7344 203.876 25.0371C204.052 25.335 204.287 25.5767 204.58 25.7622C204.873 25.9429 205.241 26.0332 205.686 26.0332C206.052 26.0332 206.367 25.9575 206.63 25.8062C206.899 25.6499 207.119 25.4375 207.29 25.1689C207.465 24.9004 207.595 24.5928 207.678 24.2461C207.761 23.8945 207.802 23.521 207.802 23.1255ZM212.241 20.6499V27H210.878V19.0752H212.167L212.241 20.6499ZM211.962 22.7373L211.333 22.7153C211.337 22.1733 211.408 21.6729 211.545 21.2139C211.682 20.75 211.884 20.3472 212.153 20.0054C212.421 19.6636 212.756 19.3999 213.156 19.2144C213.557 19.0239 214.021 18.9287 214.548 18.9287C214.919 18.9287 215.261 18.9824 215.573 19.0898C215.886 19.1924 216.157 19.356 216.386 19.5806C216.616 19.8052 216.794 20.0933 216.921 20.4448C217.048 20.7964 217.111 21.2212 217.111 21.7192V27H215.756V21.7852C215.756 21.3701 215.686 21.0381 215.544 20.7891C215.407 20.54 215.212 20.3594 214.958 20.2471C214.704 20.1299 214.406 20.0713 214.064 20.0713C213.664 20.0713 213.33 20.1421 213.061 20.2837C212.792 20.4253 212.578 20.6206 212.417 20.8696C212.255 21.1187 212.138 21.4043 212.065 21.7266C211.997 22.0439 211.962 22.3809 211.962 22.7373ZM217.097 21.9902L216.188 22.2686C216.193 21.834 216.264 21.4165 216.401 21.0161C216.542 20.6157 216.745 20.2593 217.009 19.9468C217.277 19.6343 217.607 19.3877 217.998 19.207C218.388 19.0215 218.835 18.9287 219.338 18.9287C219.763 18.9287 220.139 18.9849 220.466 19.0972C220.798 19.2095 221.076 19.3828 221.301 19.6172C221.53 19.8467 221.704 20.1421 221.821 20.5034C221.938 20.8647 221.997 21.2944 221.997 21.7925V27H220.634V21.7778C220.634 21.3335 220.563 20.9893 220.422 20.7451C220.285 20.4961 220.09 20.3228 219.836 20.2251C219.587 20.1226 219.289 20.0713 218.942 20.0713C218.645 20.0713 218.381 20.1226 218.151 20.2251C217.922 20.3276 217.729 20.4692 217.573 20.6499C217.417 20.8257 217.297 21.0283 217.214 21.2578C217.136 21.4873 217.097 21.7314 217.097 21.9902Z"
            fill="white" />
        <path
            d="M200.893 64.7524H202.021C202.382 64.7524 202.68 64.6914 202.915 64.5693C203.149 64.4424 203.322 64.2666 203.435 64.042C203.552 63.8125 203.61 63.5464 203.61 63.2437C203.61 62.9702 203.557 62.7285 203.449 62.5186C203.347 62.3037 203.188 62.1377 202.973 62.0205C202.758 61.8984 202.487 61.8374 202.16 61.8374C201.901 61.8374 201.662 61.8887 201.442 61.9912C201.223 62.0938 201.047 62.2378 200.915 62.4233C200.783 62.6089 200.717 62.8335 200.717 63.0972H198.601C198.601 62.5112 198.757 62.001 199.069 61.5664C199.387 61.1318 199.812 60.7925 200.344 60.5483C200.876 60.3042 201.462 60.1821 202.102 60.1821C202.824 60.1821 203.457 60.2993 203.999 60.5337C204.541 60.7632 204.963 61.1025 205.266 61.5518C205.568 62.001 205.72 62.5576 205.72 63.2217C205.72 63.5586 205.642 63.8857 205.485 64.2031C205.329 64.5156 205.104 64.7988 204.812 65.0527C204.523 65.3018 204.172 65.502 203.757 65.6533C203.342 65.7998 202.875 65.873 202.358 65.873H200.893V64.7524ZM200.893 66.3564V65.2651H202.358C202.939 65.2651 203.449 65.3311 203.889 65.4629C204.328 65.5947 204.697 65.7852 204.995 66.0342C205.292 66.2783 205.517 66.5688 205.668 66.9058C205.82 67.2378 205.896 67.6064 205.896 68.0117C205.896 68.5098 205.8 68.9541 205.61 69.3447C205.419 69.7305 205.151 70.0576 204.804 70.3262C204.462 70.5947 204.062 70.7998 203.603 70.9414C203.144 71.0781 202.644 71.1465 202.102 71.1465C201.652 71.1465 201.21 71.0854 200.776 70.9634C200.346 70.8364 199.956 70.6484 199.604 70.3994C199.257 70.1455 198.979 69.8281 198.769 69.4473C198.564 69.0615 198.461 68.605 198.461 68.0776H200.578C200.578 68.3511 200.646 68.5952 200.783 68.8101C200.92 69.0249 201.108 69.1934 201.347 69.3154C201.591 69.4375 201.862 69.4985 202.16 69.4985C202.497 69.4985 202.785 69.4375 203.024 69.3154C203.269 69.1885 203.454 69.0127 203.581 68.7881C203.713 68.5586 203.779 68.2925 203.779 67.9897C203.779 67.5991 203.708 67.2866 203.566 67.0522C203.425 66.813 203.222 66.6372 202.958 66.5249C202.695 66.4126 202.382 66.3564 202.021 66.3564H200.893ZM214.523 64.7305V66.5762C214.523 67.377 214.438 68.0679 214.267 68.6489C214.096 69.2251 213.85 69.6987 213.527 70.0698C213.21 70.436 212.832 70.707 212.392 70.8828C211.953 71.0586 211.464 71.1465 210.927 71.1465C210.498 71.1465 210.097 71.0928 209.726 70.9854C209.355 70.873 209.021 70.6997 208.723 70.4653C208.43 70.231 208.176 69.9355 207.961 69.5791C207.751 69.2178 207.59 68.7881 207.478 68.29C207.365 67.792 207.309 67.2207 207.309 66.5762V64.7305C207.309 63.9297 207.395 63.2437 207.565 62.6724C207.741 62.0962 207.988 61.625 208.305 61.2588C208.627 60.8926 209.008 60.624 209.448 60.4531C209.887 60.2773 210.375 60.1895 210.913 60.1895C211.342 60.1895 211.74 60.2456 212.106 60.3579C212.478 60.4653 212.812 60.6338 213.11 60.8633C213.408 61.0928 213.662 61.3882 213.872 61.7495C214.082 62.106 214.243 62.5332 214.355 63.0312C214.467 63.5244 214.523 64.0908 214.523 64.7305ZM212.407 66.8545V64.4448C212.407 64.0591 212.385 63.7222 212.341 63.4341C212.302 63.146 212.241 62.9019 212.158 62.7017C212.075 62.4966 211.972 62.3306 211.85 62.2036C211.728 62.0767 211.589 61.9839 211.433 61.9253C211.276 61.8667 211.103 61.8374 210.913 61.8374C210.673 61.8374 210.461 61.8838 210.275 61.9766C210.095 62.0693 209.941 62.2183 209.814 62.4233C209.687 62.6235 209.589 62.8921 209.521 63.229C209.458 63.561 209.426 63.9663 209.426 64.4448V66.8545C209.426 67.2402 209.445 67.5796 209.484 67.8726C209.528 68.1655 209.592 68.417 209.675 68.627C209.763 68.832 209.865 69.0005 209.982 69.1323C210.104 69.2593 210.244 69.3521 210.4 69.4106C210.561 69.4692 210.737 69.4985 210.927 69.4985C211.162 69.4985 211.369 69.4521 211.55 69.3594C211.735 69.2617 211.892 69.1104 212.019 68.9053C212.15 68.6953 212.248 68.4219 212.312 68.085C212.375 67.748 212.407 67.3379 212.407 66.8545Z"
            fill="white" />
        <rect x="169" y="4" width="3" height="74" rx="1.5" fill="white" fill-opacity="0.1" />
        <path
            d="M67.6715 40.567C72.3441 40.567 76.1321 36.9693 76.1321 32.5315C76.1321 28.0936 72.3441 24.496 67.6715 24.496C62.9989 24.496 59.2109 28.0936 59.2109 32.5315C59.2109 36.9693 62.9989 40.567 67.6715 40.567Z"
            fill="#FFCB14" />
        <path d="M69.3637 16.4605H65.9795V21.2818H69.3637V16.4605Z" fill="#FFCB14" />
        <path d="M80.8322 22.3024L78.4392 20.0296L74.8485 23.4399L77.2415 25.7126L80.8322 22.3024Z"
            fill="#FFCB14" />
        <path d="M84.5927 30.9243H79.5164V34.1385H84.5927V30.9243Z" fill="#FFCB14" />
        <path d="M74.848 41.6236L78.4392 45.0334L80.8307 42.7614L77.2395 39.3517L74.848 41.6236Z"
            fill="#FFCB14" />
        <path d="M69.3637 43.7811H65.9795V48.6024H69.3637V43.7811Z" fill="#FFCB14" />
        <path d="M54.5121 42.7632L56.9042 45.0345L60.4944 41.6237L58.1023 39.3524L54.5121 42.7632Z"
            fill="#FFCB14" />
        <path d="M55.8269 30.9243H50.7505V34.1385H55.8269V30.9243Z" fill="#FFCB14" />
        <path d="M60.4945 23.4399L56.9039 20.0296L54.5109 22.3024L58.1016 25.7126L60.4945 23.4399Z"
            fill="#FFCB14" />
        <path
            d="M207.596 48.5506C210.218 48.5506 212.342 46.5212 212.342 44.0177C212.342 41.5143 210.218 39.4849 207.596 39.4849C204.975 39.4849 202.85 41.5143 202.85 44.0177C202.85 46.5212 204.975 48.5506 207.596 48.5506Z"
            fill="#FFCB14" />
        <path d="M208.546 34.9521H206.647V37.6718H208.546V34.9521Z" fill="#FFCB14" />
        <path d="M214.979 38.2475L213.637 36.9654L211.622 38.8892L212.965 40.1712L214.979 38.2475Z"
            fill="#FFCB14" />
        <path d="M217.089 43.1112H214.241V44.9243H217.089V43.1112Z" fill="#FFCB14" />
        <path d="M211.622 49.1467L213.637 51.0701L214.978 49.7885L212.964 47.8651L211.622 49.1467Z"
            fill="#FFCB14" />
        <path d="M208.546 50.3637H206.647V53.0834H208.546V50.3637Z" fill="#FFCB14" />
        <path d="M200.214 49.7895L201.556 51.0707L203.57 49.1467L202.228 47.8655L200.214 49.7895Z"
            fill="#FFCB14" />
        <path d="M200.952 43.1112H198.104V44.9243H200.952V43.1112Z" fill="#FFCB14" />
        <path d="M203.57 38.8892L201.556 36.9654L200.214 38.2475L202.228 40.1712L203.57 38.8892Z"
            fill="#FFCB14" />
        <path
            d="M238.864 21.0015H239.831C240.304 21.0015 240.695 20.9233 241.002 20.7671C241.315 20.606 241.547 20.3887 241.698 20.1152C241.854 19.8369 241.933 19.5244 241.933 19.1777C241.933 18.7676 241.864 18.4233 241.728 18.145C241.591 17.8667 241.386 17.6567 241.112 17.5151C240.839 17.3735 240.492 17.3027 240.072 17.3027C239.691 17.3027 239.354 17.3784 239.062 17.5298C238.773 17.6763 238.546 17.8862 238.38 18.1597C238.219 18.4331 238.139 18.7554 238.139 19.1265H236.784C236.784 18.5845 236.92 18.0913 237.194 17.647C237.467 17.2026 237.851 16.8486 238.344 16.585C238.842 16.3213 239.418 16.1895 240.072 16.1895C240.717 16.1895 241.281 16.3042 241.764 16.5337C242.248 16.7583 242.624 17.0952 242.892 17.5444C243.161 17.9888 243.295 18.543 243.295 19.207C243.295 19.4756 243.231 19.7637 243.104 20.0713C242.982 20.374 242.79 20.6572 242.526 20.9209C242.267 21.1846 241.93 21.4019 241.515 21.5728C241.1 21.7388 240.602 21.8218 240.021 21.8218H238.864V21.0015ZM238.864 22.1147V21.3018H240.021C240.7 21.3018 241.261 21.3823 241.706 21.5435C242.15 21.7046 242.499 21.9194 242.753 22.188C243.012 22.4565 243.192 22.752 243.295 23.0742C243.402 23.3916 243.456 23.709 243.456 24.0264C243.456 24.5244 243.371 24.9663 243.2 25.3521C243.034 25.7378 242.797 26.0649 242.489 26.3335C242.187 26.6021 241.83 26.8047 241.42 26.9414C241.01 27.0781 240.563 27.1465 240.08 27.1465C239.616 27.1465 239.179 27.0806 238.769 26.9487C238.363 26.8169 238.004 26.6265 237.692 26.3774C237.379 26.1235 237.135 25.8135 236.959 25.4473C236.784 25.0762 236.696 24.6538 236.696 24.1802H238.051C238.051 24.5513 238.131 24.876 238.292 25.1543C238.458 25.4326 238.693 25.6499 238.996 25.8062C239.303 25.9575 239.665 26.0332 240.08 26.0332C240.495 26.0332 240.851 25.9624 241.149 25.8208C241.452 25.6743 241.684 25.4546 241.845 25.1616C242.011 24.8687 242.094 24.5 242.094 24.0557C242.094 23.6113 242.001 23.2476 241.815 22.9644C241.63 22.6763 241.366 22.4639 241.024 22.3271C240.688 22.1855 240.29 22.1147 239.831 22.1147H238.864ZM246.825 20.5986V30.0469H245.463V19.0752H246.708L246.825 20.5986ZM252.165 22.9717V23.1255C252.165 23.7017 252.096 24.2363 251.959 24.7295C251.823 25.2178 251.623 25.6426 251.359 26.0039C251.1 26.3652 250.78 26.646 250.399 26.8462C250.019 27.0464 249.582 27.1465 249.088 27.1465C248.585 27.1465 248.141 27.0635 247.755 26.8975C247.37 26.7314 247.042 26.4897 246.774 26.1724C246.505 25.855 246.291 25.4741 246.129 25.0298C245.973 24.5854 245.866 24.085 245.807 23.5283V22.708C245.866 22.1221 245.976 21.5972 246.137 21.1333C246.298 20.6694 246.51 20.2739 246.774 19.9468C247.042 19.6147 247.367 19.3633 247.748 19.1924C248.129 19.0166 248.568 18.9287 249.066 18.9287C249.564 18.9287 250.006 19.0264 250.392 19.2217C250.778 19.4121 251.103 19.6855 251.366 20.042C251.63 20.3984 251.828 20.8257 251.959 21.3237C252.096 21.8169 252.165 22.3662 252.165 22.9717ZM250.802 23.1255V22.9717C250.802 22.5762 250.761 22.2051 250.678 21.8584C250.595 21.5068 250.465 21.1992 250.29 20.9355C250.119 20.667 249.899 20.457 249.63 20.3057C249.362 20.1494 249.042 20.0713 248.671 20.0713C248.329 20.0713 248.031 20.1299 247.777 20.2471C247.528 20.3643 247.316 20.5229 247.14 20.7231C246.964 20.9185 246.82 21.1431 246.708 21.397C246.601 21.646 246.52 21.9048 246.466 22.1733V24.0703C246.564 24.4121 246.701 24.7344 246.876 25.0371C247.052 25.335 247.287 25.5767 247.58 25.7622C247.873 25.9429 248.241 26.0332 248.686 26.0332C249.052 26.0332 249.367 25.9575 249.63 25.8062C249.899 25.6499 250.119 25.4375 250.29 25.1689C250.465 24.9004 250.595 24.5928 250.678 24.2461C250.761 23.8945 250.802 23.521 250.802 23.1255ZM255.241 20.6499V27H253.878V19.0752H255.167L255.241 20.6499ZM254.962 22.7373L254.333 22.7153C254.337 22.1733 254.408 21.6729 254.545 21.2139C254.682 20.75 254.884 20.3472 255.153 20.0054C255.421 19.6636 255.756 19.3999 256.156 19.2144C256.557 19.0239 257.021 18.9287 257.548 18.9287C257.919 18.9287 258.261 18.9824 258.573 19.0898C258.886 19.1924 259.157 19.356 259.386 19.5806C259.616 19.8052 259.794 20.0933 259.921 20.4448C260.048 20.7964 260.111 21.2212 260.111 21.7192V27H258.756V21.7852C258.756 21.3701 258.686 21.0381 258.544 20.7891C258.407 20.54 258.212 20.3594 257.958 20.2471C257.704 20.1299 257.406 20.0713 257.064 20.0713C256.664 20.0713 256.33 20.1421 256.061 20.2837C255.792 20.4253 255.578 20.6206 255.417 20.8696C255.255 21.1187 255.138 21.4043 255.065 21.7266C254.997 22.0439 254.962 22.3809 254.962 22.7373ZM260.097 21.9902L259.188 22.2686C259.193 21.834 259.264 21.4165 259.401 21.0161C259.542 20.6157 259.745 20.2593 260.009 19.9468C260.277 19.6343 260.607 19.3877 260.998 19.207C261.388 19.0215 261.835 18.9287 262.338 18.9287C262.763 18.9287 263.139 18.9849 263.466 19.0972C263.798 19.2095 264.076 19.3828 264.301 19.6172C264.53 19.8467 264.704 20.1421 264.821 20.5034C264.938 20.8647 264.997 21.2944 264.997 21.7925V27H263.634V21.7778C263.634 21.3335 263.563 20.9893 263.422 20.7451C263.285 20.4961 263.09 20.3228 262.836 20.2251C262.587 20.1226 262.289 20.0713 261.942 20.0713C261.645 20.0713 261.381 20.1226 261.151 20.2251C260.922 20.3276 260.729 20.4692 260.573 20.6499C260.417 20.8257 260.297 21.0283 260.214 21.2578C260.136 21.4873 260.097 21.7314 260.097 21.9902Z"
            fill="white" />
        <path
            d="M243.893 64.7524H245.021C245.382 64.7524 245.68 64.6914 245.915 64.5693C246.149 64.4424 246.322 64.2666 246.435 64.042C246.552 63.8125 246.61 63.5464 246.61 63.2437C246.61 62.9702 246.557 62.7285 246.449 62.5186C246.347 62.3037 246.188 62.1377 245.973 62.0205C245.758 61.8984 245.487 61.8374 245.16 61.8374C244.901 61.8374 244.662 61.8887 244.442 61.9912C244.223 62.0938 244.047 62.2378 243.915 62.4233C243.783 62.6089 243.717 62.8335 243.717 63.0972H241.601C241.601 62.5112 241.757 62.001 242.069 61.5664C242.387 61.1318 242.812 60.7925 243.344 60.5483C243.876 60.3042 244.462 60.1821 245.102 60.1821C245.824 60.1821 246.457 60.2993 246.999 60.5337C247.541 60.7632 247.963 61.1025 248.266 61.5518C248.568 62.001 248.72 62.5576 248.72 63.2217C248.72 63.5586 248.642 63.8857 248.485 64.2031C248.329 64.5156 248.104 64.7988 247.812 65.0527C247.523 65.3018 247.172 65.502 246.757 65.6533C246.342 65.7998 245.875 65.873 245.358 65.873H243.893V64.7524ZM243.893 66.3564V65.2651H245.358C245.939 65.2651 246.449 65.3311 246.889 65.4629C247.328 65.5947 247.697 65.7852 247.995 66.0342C248.292 66.2783 248.517 66.5688 248.668 66.9058C248.82 67.2378 248.896 67.6064 248.896 68.0117C248.896 68.5098 248.8 68.9541 248.61 69.3447C248.419 69.7305 248.151 70.0576 247.804 70.3262C247.462 70.5947 247.062 70.7998 246.603 70.9414C246.144 71.0781 245.644 71.1465 245.102 71.1465C244.652 71.1465 244.21 71.0854 243.776 70.9634C243.346 70.8364 242.956 70.6484 242.604 70.3994C242.257 70.1455 241.979 69.8281 241.769 69.4473C241.564 69.0615 241.461 68.605 241.461 68.0776H243.578C243.578 68.3511 243.646 68.5952 243.783 68.8101C243.92 69.0249 244.108 69.1934 244.347 69.3154C244.591 69.4375 244.862 69.4985 245.16 69.4985C245.497 69.4985 245.785 69.4375 246.024 69.3154C246.269 69.1885 246.454 69.0127 246.581 68.7881C246.713 68.5586 246.779 68.2925 246.779 67.9897C246.779 67.5991 246.708 67.2866 246.566 67.0522C246.425 66.813 246.222 66.6372 245.958 66.5249C245.695 66.4126 245.382 66.3564 245.021 66.3564H243.893ZM257.523 64.7305V66.5762C257.523 67.377 257.438 68.0679 257.267 68.6489C257.096 69.2251 256.85 69.6987 256.527 70.0698C256.21 70.436 255.832 70.707 255.392 70.8828C254.953 71.0586 254.464 71.1465 253.927 71.1465C253.498 71.1465 253.097 71.0928 252.726 70.9854C252.355 70.873 252.021 70.6997 251.723 70.4653C251.43 70.231 251.176 69.9355 250.961 69.5791C250.751 69.2178 250.59 68.7881 250.478 68.29C250.365 67.792 250.309 67.2207 250.309 66.5762V64.7305C250.309 63.9297 250.395 63.2437 250.565 62.6724C250.741 62.0962 250.988 61.625 251.305 61.2588C251.627 60.8926 252.008 60.624 252.448 60.4531C252.887 60.2773 253.375 60.1895 253.913 60.1895C254.342 60.1895 254.74 60.2456 255.106 60.3579C255.478 60.4653 255.812 60.6338 256.11 60.8633C256.408 61.0928 256.662 61.3882 256.872 61.7495C257.082 62.106 257.243 62.5332 257.355 63.0312C257.467 63.5244 257.523 64.0908 257.523 64.7305ZM255.407 66.8545V64.4448C255.407 64.0591 255.385 63.7222 255.341 63.4341C255.302 63.146 255.241 62.9019 255.158 62.7017C255.075 62.4966 254.972 62.3306 254.85 62.2036C254.728 62.0767 254.589 61.9839 254.433 61.9253C254.276 61.8667 254.103 61.8374 253.913 61.8374C253.673 61.8374 253.461 61.8838 253.275 61.9766C253.095 62.0693 252.941 62.2183 252.814 62.4233C252.687 62.6235 252.589 62.8921 252.521 63.229C252.458 63.561 252.426 63.9663 252.426 64.4448V66.8545C252.426 67.2402 252.445 67.5796 252.484 67.8726C252.528 68.1655 252.592 68.417 252.675 68.627C252.763 68.832 252.865 69.0005 252.982 69.1323C253.104 69.2593 253.244 69.3521 253.4 69.4106C253.561 69.4692 253.737 69.4985 253.927 69.4985C254.162 69.4985 254.369 69.4521 254.55 69.3594C254.735 69.2617 254.892 69.1104 255.019 68.9053C255.15 68.6953 255.248 68.4219 255.312 68.085C255.375 67.748 255.407 67.3379 255.407 66.8545Z"
            fill="white" />
        <path
            d="M250.596 48.5506C253.218 48.5506 255.342 46.5212 255.342 44.0177C255.342 41.5143 253.218 39.4849 250.596 39.4849C247.975 39.4849 245.85 41.5143 245.85 44.0177C245.85 46.5212 247.975 48.5506 250.596 48.5506Z"
            fill="#FFCB14" />
        <path d="M251.546 34.9521H249.647V37.6718H251.546V34.9521Z" fill="#FFCB14" />
        <path d="M257.979 38.2475L256.637 36.9654L254.622 38.8892L255.965 40.1712L257.979 38.2475Z"
            fill="#FFCB14" />
        <path d="M260.089 43.1112H257.241V44.9243H260.089V43.1112Z" fill="#FFCB14" />
        <path d="M254.622 49.1467L256.637 51.0701L257.978 49.7885L255.964 47.8651L254.622 49.1467Z"
            fill="#FFCB14" />
        <path d="M251.546 50.3637H249.647V53.0834H251.546V50.3637Z" fill="#FFCB14" />
        <path d="M243.214 49.7895L244.556 51.0707L246.57 49.1467L245.228 47.8655L243.214 49.7895Z"
            fill="#FFCB14" />
        <path d="M243.952 43.1112H241.104V44.9243H243.952V43.1112Z" fill="#FFCB14" />
        <path d="M246.57 38.8892L244.556 36.9654L243.214 38.2475L245.228 40.1712L246.57 38.8892Z"
            fill="#FFCB14" />
        <path
            d="M284.093 24.4111V25.5244H276.388V24.7261L281.164 17.3359H282.27L281.083 19.4746L277.926 24.4111H284.093ZM282.606 17.3359V28H281.251V17.3359H282.606ZM286.825 21.5986V31.0469H285.463V20.0752H286.708L286.825 21.5986ZM292.165 23.9717V24.1255C292.165 24.7017 292.096 25.2363 291.959 25.7295C291.823 26.2178 291.623 26.6426 291.359 27.0039C291.1 27.3652 290.78 27.646 290.399 27.8462C290.019 28.0464 289.582 28.1465 289.088 28.1465C288.585 28.1465 288.141 28.0635 287.755 27.8975C287.37 27.7314 287.042 27.4897 286.774 27.1724C286.505 26.855 286.291 26.4741 286.129 26.0298C285.973 25.5854 285.866 25.085 285.807 24.5283V23.708C285.866 23.1221 285.976 22.5972 286.137 22.1333C286.298 21.6694 286.51 21.2739 286.774 20.9468C287.042 20.6147 287.367 20.3633 287.748 20.1924C288.129 20.0166 288.568 19.9287 289.066 19.9287C289.564 19.9287 290.006 20.0264 290.392 20.2217C290.778 20.4121 291.103 20.6855 291.366 21.042C291.63 21.3984 291.828 21.8257 291.959 22.3237C292.096 22.8169 292.165 23.3662 292.165 23.9717ZM290.802 24.1255V23.9717C290.802 23.5762 290.761 23.2051 290.678 22.8584C290.595 22.5068 290.465 22.1992 290.29 21.9355C290.119 21.667 289.899 21.457 289.63 21.3057C289.362 21.1494 289.042 21.0713 288.671 21.0713C288.329 21.0713 288.031 21.1299 287.777 21.2471C287.528 21.3643 287.316 21.5229 287.14 21.7231C286.964 21.9185 286.82 22.1431 286.708 22.397C286.601 22.646 286.52 22.9048 286.466 23.1733V25.0703C286.564 25.4121 286.701 25.7344 286.876 26.0371C287.052 26.335 287.287 26.5767 287.58 26.7622C287.873 26.9429 288.241 27.0332 288.686 27.0332C289.052 27.0332 289.367 26.9575 289.63 26.8062C289.899 26.6499 290.119 26.4375 290.29 26.1689C290.465 25.9004 290.595 25.5928 290.678 25.2461C290.761 24.8945 290.802 24.521 290.802 24.1255ZM295.241 21.6499V28H293.878V20.0752H295.167L295.241 21.6499ZM294.962 23.7373L294.333 23.7153C294.337 23.1733 294.408 22.6729 294.545 22.2139C294.682 21.75 294.884 21.3472 295.153 21.0054C295.421 20.6636 295.756 20.3999 296.156 20.2144C296.557 20.0239 297.021 19.9287 297.548 19.9287C297.919 19.9287 298.261 19.9824 298.573 20.0898C298.886 20.1924 299.157 20.356 299.386 20.5806C299.616 20.8052 299.794 21.0933 299.921 21.4448C300.048 21.7964 300.111 22.2212 300.111 22.7192V28H298.756V22.7852C298.756 22.3701 298.686 22.0381 298.544 21.7891C298.407 21.54 298.212 21.3594 297.958 21.2471C297.704 21.1299 297.406 21.0713 297.064 21.0713C296.664 21.0713 296.33 21.1421 296.061 21.2837C295.792 21.4253 295.578 21.6206 295.417 21.8696C295.255 22.1187 295.138 22.4043 295.065 22.7266C294.997 23.0439 294.962 23.3809 294.962 23.7373ZM300.097 22.9902L299.188 23.2686C299.193 22.834 299.264 22.4165 299.401 22.0161C299.542 21.6157 299.745 21.2593 300.009 20.9468C300.277 20.6343 300.607 20.3877 300.998 20.207C301.388 20.0215 301.835 19.9287 302.338 19.9287C302.763 19.9287 303.139 19.9849 303.466 20.0972C303.798 20.2095 304.076 20.3828 304.301 20.6172C304.53 20.8467 304.704 21.1421 304.821 21.5034C304.938 21.8647 304.997 22.2944 304.997 22.7925V28H303.634V22.7778C303.634 22.3335 303.563 21.9893 303.422 21.7451C303.285 21.4961 303.09 21.3228 302.836 21.2251C302.587 21.1226 302.289 21.0713 301.942 21.0713C301.645 21.0713 301.381 21.1226 301.151 21.2251C300.922 21.3276 300.729 21.4692 300.573 21.6499C300.417 21.8257 300.297 22.0283 300.214 22.2578C300.136 22.4873 300.097 22.7314 300.097 22.9902Z"
            fill="white" />
        <path
            d="M283.893 65.7524H285.021C285.382 65.7524 285.68 65.6914 285.915 65.5693C286.149 65.4424 286.322 65.2666 286.435 65.042C286.552 64.8125 286.61 64.5464 286.61 64.2437C286.61 63.9702 286.557 63.7285 286.449 63.5186C286.347 63.3037 286.188 63.1377 285.973 63.0205C285.758 62.8984 285.487 62.8374 285.16 62.8374C284.901 62.8374 284.662 62.8887 284.442 62.9912C284.223 63.0938 284.047 63.2378 283.915 63.4233C283.783 63.6089 283.717 63.8335 283.717 64.0972H281.601C281.601 63.5112 281.757 63.001 282.069 62.5664C282.387 62.1318 282.812 61.7925 283.344 61.5483C283.876 61.3042 284.462 61.1821 285.102 61.1821C285.824 61.1821 286.457 61.2993 286.999 61.5337C287.541 61.7632 287.963 62.1025 288.266 62.5518C288.568 63.001 288.72 63.5576 288.72 64.2217C288.72 64.5586 288.642 64.8857 288.485 65.2031C288.329 65.5156 288.104 65.7988 287.812 66.0527C287.523 66.3018 287.172 66.502 286.757 66.6533C286.342 66.7998 285.875 66.873 285.358 66.873H283.893V65.7524ZM283.893 67.3564V66.2651H285.358C285.939 66.2651 286.449 66.3311 286.889 66.4629C287.328 66.5947 287.697 66.7852 287.995 67.0342C288.292 67.2783 288.517 67.5688 288.668 67.9058C288.82 68.2378 288.896 68.6064 288.896 69.0117C288.896 69.5098 288.8 69.9541 288.61 70.3447C288.419 70.7305 288.151 71.0576 287.804 71.3262C287.462 71.5947 287.062 71.7998 286.603 71.9414C286.144 72.0781 285.644 72.1465 285.102 72.1465C284.652 72.1465 284.21 72.0854 283.776 71.9634C283.346 71.8364 282.956 71.6484 282.604 71.3994C282.257 71.1455 281.979 70.8281 281.769 70.4473C281.564 70.0615 281.461 69.605 281.461 69.0776H283.578C283.578 69.3511 283.646 69.5952 283.783 69.8101C283.92 70.0249 284.108 70.1934 284.347 70.3154C284.591 70.4375 284.862 70.4985 285.16 70.4985C285.497 70.4985 285.785 70.4375 286.024 70.3154C286.269 70.1885 286.454 70.0127 286.581 69.7881C286.713 69.5586 286.779 69.2925 286.779 68.9897C286.779 68.5991 286.708 68.2866 286.566 68.0522C286.425 67.813 286.222 67.6372 285.958 67.5249C285.695 67.4126 285.382 67.3564 285.021 67.3564H283.893ZM297.523 65.7305V67.5762C297.523 68.377 297.438 69.0679 297.267 69.6489C297.096 70.2251 296.85 70.6987 296.527 71.0698C296.21 71.436 295.832 71.707 295.392 71.8828C294.953 72.0586 294.464 72.1465 293.927 72.1465C293.498 72.1465 293.097 72.0928 292.726 71.9854C292.355 71.873 292.021 71.6997 291.723 71.4653C291.43 71.231 291.176 70.9355 290.961 70.5791C290.751 70.2178 290.59 69.7881 290.478 69.29C290.365 68.792 290.309 68.2207 290.309 67.5762V65.7305C290.309 64.9297 290.395 64.2437 290.565 63.6724C290.741 63.0962 290.988 62.625 291.305 62.2588C291.627 61.8926 292.008 61.624 292.448 61.4531C292.887 61.2773 293.375 61.1895 293.913 61.1895C294.342 61.1895 294.74 61.2456 295.106 61.3579C295.478 61.4653 295.812 61.6338 296.11 61.8633C296.408 62.0928 296.662 62.3882 296.872 62.7495C297.082 63.106 297.243 63.5332 297.355 64.0312C297.467 64.5244 297.523 65.0908 297.523 65.7305ZM295.407 67.8545V65.4448C295.407 65.0591 295.385 64.7222 295.341 64.4341C295.302 64.146 295.241 63.9019 295.158 63.7017C295.075 63.4966 294.972 63.3306 294.85 63.2036C294.728 63.0767 294.589 62.9839 294.433 62.9253C294.276 62.8667 294.103 62.8374 293.913 62.8374C293.673 62.8374 293.461 62.8838 293.275 62.9766C293.095 63.0693 292.941 63.2183 292.814 63.4233C292.687 63.6235 292.589 63.8921 292.521 64.229C292.458 64.561 292.426 64.9663 292.426 65.4448V67.8545C292.426 68.2402 292.445 68.5796 292.484 68.8726C292.528 69.1655 292.592 69.417 292.675 69.627C292.763 69.832 292.865 70.0005 292.982 70.1323C293.104 70.2593 293.244 70.3521 293.4 70.4106C293.561 70.4692 293.737 70.4985 293.927 70.4985C294.162 70.4985 294.369 70.4521 294.55 70.3594C294.735 70.2617 294.892 70.1104 295.019 69.9053C295.15 69.6953 295.248 69.4219 295.312 69.085C295.375 68.748 295.407 68.3379 295.407 67.8545Z"
            fill="white" />
        <path
            d="M290.596 49.5506C293.218 49.5506 295.342 47.5212 295.342 45.0177C295.342 42.5143 293.218 40.4849 290.596 40.4849C287.975 40.4849 285.85 42.5143 285.85 45.0177C285.85 47.5212 287.975 49.5506 290.596 49.5506Z"
            fill="#FFCB14" />
        <path d="M291.546 35.9521H289.647V38.6718H291.546V35.9521Z" fill="#FFCB14" />
        <path d="M297.979 39.2475L296.637 37.9654L294.622 39.8892L295.965 41.1712L297.979 39.2475Z"
            fill="#FFCB14" />
        <path d="M300.089 44.1112H297.241V45.9243H300.089V44.1112Z" fill="#FFCB14" />
        <path d="M294.622 50.1467L296.637 52.0701L297.978 50.7885L295.964 48.8651L294.622 50.1467Z"
            fill="#FFCB14" />
        <path d="M291.546 51.3637H289.647V54.0834H291.546V51.3637Z" fill="#FFCB14" />
        <path d="M283.214 50.7895L284.556 52.0707L286.57 50.1467L285.228 48.8655L283.214 50.7895Z"
            fill="#FFCB14" />
        <path d="M283.952 44.1112H281.104V45.9243H283.952V44.1112Z" fill="#FFCB14" />
        <path d="M286.57 39.8892L284.556 37.9654L283.214 39.2475L285.228 41.1712L286.57 39.8892Z"
            fill="#FFCB14" />
        <path
            d="M321.6 22.9243L320.516 22.646L321.051 17.3359H326.522V18.5884H322.201L321.878 21.4888C322.074 21.3765 322.32 21.2715 322.618 21.1738C322.921 21.0762 323.268 21.0273 323.658 21.0273C324.151 21.0273 324.593 21.1128 324.984 21.2837C325.375 21.4497 325.707 21.689 325.98 22.0015C326.258 22.314 326.471 22.6899 326.617 23.1294C326.764 23.5688 326.837 24.0596 326.837 24.6016C326.837 25.1143 326.766 25.5854 326.625 26.0151C326.488 26.4448 326.28 26.8208 326.002 27.1431C325.724 27.4604 325.372 27.707 324.947 27.8828C324.527 28.0586 324.032 28.1465 323.46 28.1465C323.031 28.1465 322.623 28.0879 322.237 27.9707C321.856 27.8486 321.515 27.6655 321.212 27.4214C320.914 27.1724 320.67 26.8647 320.479 26.4985C320.294 26.1274 320.177 25.6929 320.128 25.1948H321.417C321.476 25.5952 321.593 25.9321 321.769 26.2056C321.944 26.479 322.174 26.6865 322.457 26.8281C322.745 26.9648 323.08 27.0332 323.46 27.0332C323.783 27.0332 324.068 26.9771 324.317 26.8647C324.566 26.7524 324.776 26.5913 324.947 26.3813C325.118 26.1714 325.248 25.9175 325.335 25.6196C325.428 25.3218 325.475 24.9873 325.475 24.6162C325.475 24.2793 325.428 23.9668 325.335 23.6787C325.243 23.3906 325.104 23.1392 324.918 22.9243C324.737 22.7095 324.515 22.5435 324.251 22.4263C323.988 22.3042 323.685 22.2432 323.343 22.2432C322.889 22.2432 322.545 22.3042 322.311 22.4263C322.081 22.5483 321.844 22.7144 321.6 22.9243ZM329.825 21.5986V31.0469H328.463V20.0752H329.708L329.825 21.5986ZM335.165 23.9717V24.1255C335.165 24.7017 335.096 25.2363 334.959 25.7295C334.823 26.2178 334.623 26.6426 334.359 27.0039C334.1 27.3652 333.78 27.646 333.399 27.8462C333.019 28.0464 332.582 28.1465 332.088 28.1465C331.585 28.1465 331.141 28.0635 330.755 27.8975C330.37 27.7314 330.042 27.4897 329.774 27.1724C329.505 26.855 329.291 26.4741 329.129 26.0298C328.973 25.5854 328.866 25.085 328.807 24.5283V23.708C328.866 23.1221 328.976 22.5972 329.137 22.1333C329.298 21.6694 329.51 21.2739 329.774 20.9468C330.042 20.6147 330.367 20.3633 330.748 20.1924C331.129 20.0166 331.568 19.9287 332.066 19.9287C332.564 19.9287 333.006 20.0264 333.392 20.2217C333.778 20.4121 334.103 20.6855 334.366 21.042C334.63 21.3984 334.828 21.8257 334.959 22.3237C335.096 22.8169 335.165 23.3662 335.165 23.9717ZM333.802 24.1255V23.9717C333.802 23.5762 333.761 23.2051 333.678 22.8584C333.595 22.5068 333.465 22.1992 333.29 21.9355C333.119 21.667 332.899 21.457 332.63 21.3057C332.362 21.1494 332.042 21.0713 331.671 21.0713C331.329 21.0713 331.031 21.1299 330.777 21.2471C330.528 21.3643 330.316 21.5229 330.14 21.7231C329.964 21.9185 329.82 22.1431 329.708 22.397C329.601 22.646 329.52 22.9048 329.466 23.1733V25.0703C329.564 25.4121 329.701 25.7344 329.876 26.0371C330.052 26.335 330.287 26.5767 330.58 26.7622C330.873 26.9429 331.241 27.0332 331.686 27.0332C332.052 27.0332 332.367 26.9575 332.63 26.8062C332.899 26.6499 333.119 26.4375 333.29 26.1689C333.465 25.9004 333.595 25.5928 333.678 25.2461C333.761 24.8945 333.802 24.521 333.802 24.1255ZM338.241 21.6499V28H336.878V20.0752H338.167L338.241 21.6499ZM337.962 23.7373L337.333 23.7153C337.337 23.1733 337.408 22.6729 337.545 22.2139C337.682 21.75 337.884 21.3472 338.153 21.0054C338.421 20.6636 338.756 20.3999 339.156 20.2144C339.557 20.0239 340.021 19.9287 340.548 19.9287C340.919 19.9287 341.261 19.9824 341.573 20.0898C341.886 20.1924 342.157 20.356 342.386 20.5806C342.616 20.8052 342.794 21.0933 342.921 21.4448C343.048 21.7964 343.111 22.2212 343.111 22.7192V28H341.756V22.7852C341.756 22.3701 341.686 22.0381 341.544 21.7891C341.407 21.54 341.212 21.3594 340.958 21.2471C340.704 21.1299 340.406 21.0713 340.064 21.0713C339.664 21.0713 339.33 21.1421 339.061 21.2837C338.792 21.4253 338.578 21.6206 338.417 21.8696C338.255 22.1187 338.138 22.4043 338.065 22.7266C337.997 23.0439 337.962 23.3809 337.962 23.7373ZM343.097 22.9902L342.188 23.2686C342.193 22.834 342.264 22.4165 342.401 22.0161C342.542 21.6157 342.745 21.2593 343.009 20.9468C343.277 20.6343 343.607 20.3877 343.998 20.207C344.388 20.0215 344.835 19.9287 345.338 19.9287C345.763 19.9287 346.139 19.9849 346.466 20.0972C346.798 20.2095 347.076 20.3828 347.301 20.6172C347.53 20.8467 347.704 21.1421 347.821 21.5034C347.938 21.8647 347.997 22.2944 347.997 22.7925V28H346.634V22.7778C346.634 22.3335 346.563 21.9893 346.422 21.7451C346.285 21.4961 346.09 21.3228 345.836 21.2251C345.587 21.1226 345.289 21.0713 344.942 21.0713C344.645 21.0713 344.381 21.1226 344.151 21.2251C343.922 21.3276 343.729 21.4692 343.573 21.6499C343.417 21.8257 343.297 22.0283 343.214 22.2578C343.136 22.4873 343.097 22.7314 343.097 22.9902Z"
            fill="white" />
        <path
            d="M326.893 65.7524H328.021C328.382 65.7524 328.68 65.6914 328.915 65.5693C329.149 65.4424 329.322 65.2666 329.435 65.042C329.552 64.8125 329.61 64.5464 329.61 64.2437C329.61 63.9702 329.557 63.7285 329.449 63.5186C329.347 63.3037 329.188 63.1377 328.973 63.0205C328.758 62.8984 328.487 62.8374 328.16 62.8374C327.901 62.8374 327.662 62.8887 327.442 62.9912C327.223 63.0938 327.047 63.2378 326.915 63.4233C326.783 63.6089 326.717 63.8335 326.717 64.0972H324.601C324.601 63.5112 324.757 63.001 325.069 62.5664C325.387 62.1318 325.812 61.7925 326.344 61.5483C326.876 61.3042 327.462 61.1821 328.102 61.1821C328.824 61.1821 329.457 61.2993 329.999 61.5337C330.541 61.7632 330.963 62.1025 331.266 62.5518C331.568 63.001 331.72 63.5576 331.72 64.2217C331.72 64.5586 331.642 64.8857 331.485 65.2031C331.329 65.5156 331.104 65.7988 330.812 66.0527C330.523 66.3018 330.172 66.502 329.757 66.6533C329.342 66.7998 328.875 66.873 328.358 66.873H326.893V65.7524ZM326.893 67.3564V66.2651H328.358C328.939 66.2651 329.449 66.3311 329.889 66.4629C330.328 66.5947 330.697 66.7852 330.995 67.0342C331.292 67.2783 331.517 67.5688 331.668 67.9058C331.82 68.2378 331.896 68.6064 331.896 69.0117C331.896 69.5098 331.8 69.9541 331.61 70.3447C331.419 70.7305 331.151 71.0576 330.804 71.3262C330.462 71.5947 330.062 71.7998 329.603 71.9414C329.144 72.0781 328.644 72.1465 328.102 72.1465C327.652 72.1465 327.21 72.0854 326.776 71.9634C326.346 71.8364 325.956 71.6484 325.604 71.3994C325.257 71.1455 324.979 70.8281 324.769 70.4473C324.564 70.0615 324.461 69.605 324.461 69.0776H326.578C326.578 69.3511 326.646 69.5952 326.783 69.8101C326.92 70.0249 327.108 70.1934 327.347 70.3154C327.591 70.4375 327.862 70.4985 328.16 70.4985C328.497 70.4985 328.785 70.4375 329.024 70.3154C329.269 70.1885 329.454 70.0127 329.581 69.7881C329.713 69.5586 329.779 69.2925 329.779 68.9897C329.779 68.5991 329.708 68.2866 329.566 68.0522C329.425 67.813 329.222 67.6372 328.958 67.5249C328.695 67.4126 328.382 67.3564 328.021 67.3564H326.893ZM340.523 65.7305V67.5762C340.523 68.377 340.438 69.0679 340.267 69.6489C340.096 70.2251 339.85 70.6987 339.527 71.0698C339.21 71.436 338.832 71.707 338.392 71.8828C337.953 72.0586 337.464 72.1465 336.927 72.1465C336.498 72.1465 336.097 72.0928 335.726 71.9854C335.355 71.873 335.021 71.6997 334.723 71.4653C334.43 71.231 334.176 70.9355 333.961 70.5791C333.751 70.2178 333.59 69.7881 333.478 69.29C333.365 68.792 333.309 68.2207 333.309 67.5762V65.7305C333.309 64.9297 333.395 64.2437 333.565 63.6724C333.741 63.0962 333.988 62.625 334.305 62.2588C334.627 61.8926 335.008 61.624 335.448 61.4531C335.887 61.2773 336.375 61.1895 336.913 61.1895C337.342 61.1895 337.74 61.2456 338.106 61.3579C338.478 61.4653 338.812 61.6338 339.11 61.8633C339.408 62.0928 339.662 62.3882 339.872 62.7495C340.082 63.106 340.243 63.5332 340.355 64.0312C340.467 64.5244 340.523 65.0908 340.523 65.7305ZM338.407 67.8545V65.4448C338.407 65.0591 338.385 64.7222 338.341 64.4341C338.302 64.146 338.241 63.9019 338.158 63.7017C338.075 63.4966 337.972 63.3306 337.85 63.2036C337.728 63.0767 337.589 62.9839 337.433 62.9253C337.276 62.8667 337.103 62.8374 336.913 62.8374C336.673 62.8374 336.461 62.8838 336.275 62.9766C336.095 63.0693 335.941 63.2183 335.814 63.4233C335.687 63.6235 335.589 63.8921 335.521 64.229C335.458 64.561 335.426 64.9663 335.426 65.4448V67.8545C335.426 68.2402 335.445 68.5796 335.484 68.8726C335.528 69.1655 335.592 69.417 335.675 69.627C335.763 69.832 335.865 70.0005 335.982 70.1323C336.104 70.2593 336.244 70.3521 336.4 70.4106C336.561 70.4692 336.737 70.4985 336.927 70.4985C337.162 70.4985 337.369 70.4521 337.55 70.3594C337.735 70.2617 337.892 70.1104 338.019 69.9053C338.15 69.6953 338.248 69.4219 338.312 69.085C338.375 68.748 338.407 68.3379 338.407 67.8545Z"
            fill="white" />
        <path
            d="M333.596 49.5506C336.218 49.5506 338.342 47.5212 338.342 45.0177C338.342 42.5143 336.218 40.4849 333.596 40.4849C330.975 40.4849 328.85 42.5143 328.85 45.0177C328.85 47.5212 330.975 49.5506 333.596 49.5506Z"
            fill="#FFCB14" />
        <path d="M334.546 35.9521H332.647V38.6718H334.546V35.9521Z" fill="#FFCB14" />
        <path d="M340.979 39.2475L339.637 37.9654L337.622 39.8892L338.965 41.1712L340.979 39.2475Z"
            fill="#FFCB14" />
        <path d="M343.089 44.1112H340.241V45.9243H343.089V44.1112Z" fill="#FFCB14" />
        <path d="M337.622 50.1467L339.637 52.0701L340.978 50.7885L338.964 48.8651L337.622 50.1467Z"
            fill="#FFCB14" />
        <path d="M334.546 51.3637H332.647V54.0834H334.546V51.3637Z" fill="#FFCB14" />
        <path d="M326.214 50.7895L327.556 52.0707L329.57 50.1467L328.228 48.8655L326.214 50.7895Z"
            fill="#FFCB14" />
        <path d="M326.952 44.1112H324.104V45.9243H326.952V44.1112Z" fill="#FFCB14" />
        <path d="M329.57 39.8892L327.556 37.9654L326.214 39.2475L328.228 41.1712L329.57 39.8892Z"
            fill="#FFCB14" />
        <path
            d="M365.086 17.3213H365.204V18.4712H365.086C364.369 18.4712 363.768 18.5884 363.285 18.8228C362.801 19.0522 362.418 19.3623 362.135 19.7529C361.852 20.1387 361.646 20.5732 361.52 21.0566C361.397 21.54 361.336 22.0308 361.336 22.5288V24.0962C361.336 24.5698 361.393 24.9897 361.505 25.356C361.617 25.7173 361.771 26.0225 361.966 26.2715C362.162 26.5205 362.381 26.7085 362.625 26.8354C362.875 26.9624 363.133 27.0259 363.402 27.0259C363.714 27.0259 363.993 26.9673 364.237 26.8501C364.481 26.728 364.686 26.5596 364.852 26.3447C365.023 26.125 365.152 25.8662 365.24 25.5684C365.328 25.2705 365.372 24.9434 365.372 24.5869C365.372 24.2695 365.333 23.9644 365.255 23.6714C365.177 23.3735 365.057 23.1099 364.896 22.8804C364.735 22.646 364.532 22.4629 364.288 22.3311C364.049 22.1943 363.763 22.126 363.431 22.126C363.055 22.126 362.704 22.2188 362.376 22.4043C362.054 22.585 361.788 22.8242 361.578 23.1221C361.373 23.415 361.256 23.7349 361.227 24.0815L360.509 24.0742C360.577 23.5273 360.704 23.061 360.89 22.6753C361.08 22.2847 361.314 21.9673 361.593 21.7231C361.876 21.4741 362.191 21.2935 362.538 21.1812C362.889 21.064 363.26 21.0054 363.651 21.0054C364.183 21.0054 364.642 21.1055 365.028 21.3057C365.414 21.5059 365.731 21.7744 365.98 22.1113C366.229 22.4434 366.412 22.8193 366.529 23.2393C366.651 23.6543 366.712 24.0815 366.712 24.521C366.712 25.0239 366.642 25.4951 366.5 25.9346C366.358 26.374 366.146 26.7598 365.863 27.0918C365.584 27.4238 365.24 27.6826 364.83 27.8682C364.42 28.0537 363.944 28.1465 363.402 28.1465C362.826 28.1465 362.323 28.0293 361.893 27.7949C361.463 27.5557 361.107 27.2383 360.824 26.8428C360.541 26.4473 360.328 26.0078 360.187 25.5244C360.045 25.041 359.974 24.5503 359.974 24.0522V23.415C359.974 22.6631 360.05 21.9258 360.201 21.2031C360.353 20.4805 360.614 19.8262 360.985 19.2402C361.361 18.6543 361.881 18.188 362.545 17.8413C363.209 17.4946 364.056 17.3213 365.086 17.3213ZM369.825 21.5986V31.0469H368.463V20.0752H369.708L369.825 21.5986ZM375.165 23.9717V24.1255C375.165 24.7017 375.096 25.2363 374.959 25.7295C374.823 26.2178 374.623 26.6426 374.359 27.0039C374.1 27.3652 373.78 27.646 373.399 27.8462C373.019 28.0464 372.582 28.1465 372.088 28.1465C371.585 28.1465 371.141 28.0635 370.755 27.8975C370.37 27.7314 370.042 27.4897 369.774 27.1724C369.505 26.855 369.291 26.4741 369.129 26.0298C368.973 25.5854 368.866 25.085 368.807 24.5283V23.708C368.866 23.1221 368.976 22.5972 369.137 22.1333C369.298 21.6694 369.51 21.2739 369.774 20.9468C370.042 20.6147 370.367 20.3633 370.748 20.1924C371.129 20.0166 371.568 19.9287 372.066 19.9287C372.564 19.9287 373.006 20.0264 373.392 20.2217C373.778 20.4121 374.103 20.6855 374.366 21.042C374.63 21.3984 374.828 21.8257 374.959 22.3237C375.096 22.8169 375.165 23.3662 375.165 23.9717ZM373.802 24.1255V23.9717C373.802 23.5762 373.761 23.2051 373.678 22.8584C373.595 22.5068 373.465 22.1992 373.29 21.9355C373.119 21.667 372.899 21.457 372.63 21.3057C372.362 21.1494 372.042 21.0713 371.671 21.0713C371.329 21.0713 371.031 21.1299 370.777 21.2471C370.528 21.3643 370.316 21.5229 370.14 21.7231C369.964 21.9185 369.82 22.1431 369.708 22.397C369.601 22.646 369.52 22.9048 369.466 23.1733V25.0703C369.564 25.4121 369.701 25.7344 369.876 26.0371C370.052 26.335 370.287 26.5767 370.58 26.7622C370.873 26.9429 371.241 27.0332 371.686 27.0332C372.052 27.0332 372.367 26.9575 372.63 26.8062C372.899 26.6499 373.119 26.4375 373.29 26.1689C373.465 25.9004 373.595 25.5928 373.678 25.2461C373.761 24.8945 373.802 24.521 373.802 24.1255ZM378.241 21.6499V28H376.878V20.0752H378.167L378.241 21.6499ZM377.962 23.7373L377.333 23.7153C377.337 23.1733 377.408 22.6729 377.545 22.2139C377.682 21.75 377.884 21.3472 378.153 21.0054C378.421 20.6636 378.756 20.3999 379.156 20.2144C379.557 20.0239 380.021 19.9287 380.548 19.9287C380.919 19.9287 381.261 19.9824 381.573 20.0898C381.886 20.1924 382.157 20.356 382.386 20.5806C382.616 20.8052 382.794 21.0933 382.921 21.4448C383.048 21.7964 383.111 22.2212 383.111 22.7192V28H381.756V22.7852C381.756 22.3701 381.686 22.0381 381.544 21.7891C381.407 21.54 381.212 21.3594 380.958 21.2471C380.704 21.1299 380.406 21.0713 380.064 21.0713C379.664 21.0713 379.33 21.1421 379.061 21.2837C378.792 21.4253 378.578 21.6206 378.417 21.8696C378.255 22.1187 378.138 22.4043 378.065 22.7266C377.997 23.0439 377.962 23.3809 377.962 23.7373ZM383.097 22.9902L382.188 23.2686C382.193 22.834 382.264 22.4165 382.401 22.0161C382.542 21.6157 382.745 21.2593 383.009 20.9468C383.277 20.6343 383.607 20.3877 383.998 20.207C384.388 20.0215 384.835 19.9287 385.338 19.9287C385.763 19.9287 386.139 19.9849 386.466 20.0972C386.798 20.2095 387.076 20.3828 387.301 20.6172C387.53 20.8467 387.704 21.1421 387.821 21.5034C387.938 21.8647 387.997 22.2944 387.997 22.7925V28H386.634V22.7778C386.634 22.3335 386.563 21.9893 386.422 21.7451C386.285 21.4961 386.09 21.3228 385.836 21.2251C385.587 21.1226 385.289 21.0713 384.942 21.0713C384.645 21.0713 384.381 21.1226 384.151 21.2251C383.922 21.3276 383.729 21.4692 383.573 21.6499C383.417 21.8257 383.297 22.0283 383.214 22.2578C383.136 22.4873 383.097 22.7314 383.097 22.9902Z"
            fill="white" />
        <path
            d="M366.893 65.7524H368.021C368.382 65.7524 368.68 65.6914 368.915 65.5693C369.149 65.4424 369.322 65.2666 369.435 65.042C369.552 64.8125 369.61 64.5464 369.61 64.2437C369.61 63.9702 369.557 63.7285 369.449 63.5186C369.347 63.3037 369.188 63.1377 368.973 63.0205C368.758 62.8984 368.487 62.8374 368.16 62.8374C367.901 62.8374 367.662 62.8887 367.442 62.9912C367.223 63.0938 367.047 63.2378 366.915 63.4233C366.783 63.6089 366.717 63.8335 366.717 64.0972H364.601C364.601 63.5112 364.757 63.001 365.069 62.5664C365.387 62.1318 365.812 61.7925 366.344 61.5483C366.876 61.3042 367.462 61.1821 368.102 61.1821C368.824 61.1821 369.457 61.2993 369.999 61.5337C370.541 61.7632 370.963 62.1025 371.266 62.5518C371.568 63.001 371.72 63.5576 371.72 64.2217C371.72 64.5586 371.642 64.8857 371.485 65.2031C371.329 65.5156 371.104 65.7988 370.812 66.0527C370.523 66.3018 370.172 66.502 369.757 66.6533C369.342 66.7998 368.875 66.873 368.358 66.873H366.893V65.7524ZM366.893 67.3564V66.2651H368.358C368.939 66.2651 369.449 66.3311 369.889 66.4629C370.328 66.5947 370.697 66.7852 370.995 67.0342C371.292 67.2783 371.517 67.5688 371.668 67.9058C371.82 68.2378 371.896 68.6064 371.896 69.0117C371.896 69.5098 371.8 69.9541 371.61 70.3447C371.419 70.7305 371.151 71.0576 370.804 71.3262C370.462 71.5947 370.062 71.7998 369.603 71.9414C369.144 72.0781 368.644 72.1465 368.102 72.1465C367.652 72.1465 367.21 72.0854 366.776 71.9634C366.346 71.8364 365.956 71.6484 365.604 71.3994C365.257 71.1455 364.979 70.8281 364.769 70.4473C364.564 70.0615 364.461 69.605 364.461 69.0776H366.578C366.578 69.3511 366.646 69.5952 366.783 69.8101C366.92 70.0249 367.108 70.1934 367.347 70.3154C367.591 70.4375 367.862 70.4985 368.16 70.4985C368.497 70.4985 368.785 70.4375 369.024 70.3154C369.269 70.1885 369.454 70.0127 369.581 69.7881C369.713 69.5586 369.779 69.2925 369.779 68.9897C369.779 68.5991 369.708 68.2866 369.566 68.0522C369.425 67.813 369.222 67.6372 368.958 67.5249C368.695 67.4126 368.382 67.3564 368.021 67.3564H366.893ZM380.523 65.7305V67.5762C380.523 68.377 380.438 69.0679 380.267 69.6489C380.096 70.2251 379.85 70.6987 379.527 71.0698C379.21 71.436 378.832 71.707 378.392 71.8828C377.953 72.0586 377.464 72.1465 376.927 72.1465C376.498 72.1465 376.097 72.0928 375.726 71.9854C375.355 71.873 375.021 71.6997 374.723 71.4653C374.43 71.231 374.176 70.9355 373.961 70.5791C373.751 70.2178 373.59 69.7881 373.478 69.29C373.365 68.792 373.309 68.2207 373.309 67.5762V65.7305C373.309 64.9297 373.395 64.2437 373.565 63.6724C373.741 63.0962 373.988 62.625 374.305 62.2588C374.627 61.8926 375.008 61.624 375.448 61.4531C375.887 61.2773 376.375 61.1895 376.913 61.1895C377.342 61.1895 377.74 61.2456 378.106 61.3579C378.478 61.4653 378.812 61.6338 379.11 61.8633C379.408 62.0928 379.662 62.3882 379.872 62.7495C380.082 63.106 380.243 63.5332 380.355 64.0312C380.467 64.5244 380.523 65.0908 380.523 65.7305ZM378.407 67.8545V65.4448C378.407 65.0591 378.385 64.7222 378.341 64.4341C378.302 64.146 378.241 63.9019 378.158 63.7017C378.075 63.4966 377.972 63.3306 377.85 63.2036C377.728 63.0767 377.589 62.9839 377.433 62.9253C377.276 62.8667 377.103 62.8374 376.913 62.8374C376.673 62.8374 376.461 62.8838 376.275 62.9766C376.095 63.0693 375.941 63.2183 375.814 63.4233C375.687 63.6235 375.589 63.8921 375.521 64.229C375.458 64.561 375.426 64.9663 375.426 65.4448V67.8545C375.426 68.2402 375.445 68.5796 375.484 68.8726C375.528 69.1655 375.592 69.417 375.675 69.627C375.763 69.832 375.865 70.0005 375.982 70.1323C376.104 70.2593 376.244 70.3521 376.4 70.4106C376.561 70.4692 376.737 70.4985 376.927 70.4985C377.162 70.4985 377.369 70.4521 377.55 70.3594C377.735 70.2617 377.892 70.1104 378.019 69.9053C378.15 69.6953 378.248 69.4219 378.312 69.085C378.375 68.748 378.407 68.3379 378.407 67.8545Z"
            fill="white" />
        <path
            d="M373.596 49.5506C376.218 49.5506 378.342 47.5212 378.342 45.0177C378.342 42.5143 376.218 40.4849 373.596 40.4849C370.975 40.4849 368.85 42.5143 368.85 45.0177C368.85 47.5212 370.975 49.5506 373.596 49.5506Z"
            fill="#FFCB14" />
        <path d="M374.546 35.9521H372.647V38.6718H374.546V35.9521Z" fill="#FFCB14" />
        <path d="M380.979 39.2475L379.637 37.9654L377.622 39.8892L378.965 41.1712L380.979 39.2475Z"
            fill="#FFCB14" />
        <path d="M383.089 44.1112H380.241V45.9243H383.089V44.1112Z" fill="#FFCB14" />
        <path d="M377.622 50.1467L379.637 52.0701L380.978 50.7885L378.964 48.8651L377.622 50.1467Z"
            fill="#FFCB14" />
        <path d="M374.546 51.3637H372.647V54.0834H374.546V51.3637Z" fill="#FFCB14" />
        <path d="M366.214 50.7895L367.556 52.0707L369.57 50.1467L368.228 48.8655L366.214 50.7895Z"
            fill="#FFCB14" />
        <path d="M366.952 44.1112H364.104V45.9243H366.952V44.1112Z" fill="#FFCB14" />
        <path d="M369.57 39.8892L367.556 37.9654L366.214 39.2475L368.228 41.1712L369.57 39.8892Z"
            fill="#FFCB14" />
    </g>
    <defs>
        <filter id="filter0_d_6_2253" x="0" y="0" width="408" height="95"
            filterUnits="userSpaceOnUse" color-interpolation-filters="sRGB">
            <feFlood flood-opacity="0" result="BackgroundImageFix" />
            <feColorMatrix in="SourceAlpha" type="matrix"
                values="0 0 0 0 0 0 0 0 0 0 0 0 0 0 0 0 0 0 127 0" result="hardAlpha" />
            <feOffset dy="4" />
            <feGaussianBlur stdDeviation="2" />
            <feComposite in2="hardAlpha" operator="out" />
            <feColorMatrix type="matrix" values="0 0 0 0 0 0 0 0 0 0 0 0 0 0 0 0 0 0 0.25 0" />
            <feBlend mode="normal" in2="BackgroundImageFix" result="effect1_dropShadow_6_2253" />
            <feBlend mode="normal" in="SourceGraphic" in2="effect1_dropShadow_6_2253"
                result="shape" />
        </filter>
        <linearGradient id="paint0_linear_6_2253" x1="204" y1="0" x2="204" y2="87"
            gradientUnits="userSpaceOnUse">
            <stop stop-color="#92D7FF" />
            <stop offset="1" stop-color="#30AFF7" />
        </linearGradient>
    </defs>
</svg>
